<svg width="163" height="191" viewBox="0 0 163 191" fill="none" xmlns="http://www.w3.org/2000/svg">
<path d="M49.0061 112.611L69.9127 191L0.789551 112.611H49.0061Z" fill="#2A7948"/>
<path d="M49.4055 101.413H0.789551L32.746 69.4564C33.7987 68.4075 35.2208 67.8177 36.7065 67.8177H68.6032L49.4055 101.413Z" fill="#2A7948"/>
<path d="M100.698 101.413H62.3022L81.5 67.8177L100.698 101.413Z" fill="black"/>
<path d="M102.403 112.611L81.4998 191L60.5962 112.611H102.403Z" fill="black"/>
<path d="M113.595 101.413L94.397 67.8177H126.294C127.779 67.8177 129.202 68.4075 130.254 69.4564L162.211 101.413H113.595Z" fill="#2A7948"/>
<path d="M113.994 112.611H162.211L93.0874 191L113.994 112.611Z" fill="#2A7948"/>
<path d="M81.5001 31.9273C78.4078 31.9273 75.9009 29.4204 75.9009 26.3281V5.59919C75.9009 2.50694 78.4078 0 81.5001 0C84.5923 0 87.0993 2.50694 87.0993 5.59919V26.3281C87.0993 29.4204 84.5927 31.9273 81.5001 31.9273Z" fill="#2A7948"/>
<path d="M25.8414 43.4885L15.4769 25.5368C13.9304 22.8589 14.8479 19.4344 17.5262 17.8883C20.2041 16.3422 23.6289 17.2593 25.1747 19.9376L35.5392 37.8894C37.0857 40.5673 36.1682 43.9917 33.4899 45.5379C30.8232 47.0776 27.3942 46.1788 25.8414 43.4885Z" fill="#2A7948"/>
<path d="M129.511 45.5383C126.832 43.9921 125.915 40.5677 127.461 37.8898L137.826 19.938C139.372 17.2597 142.796 16.3422 145.474 17.8887C148.153 19.4348 149.07 22.8593 147.524 25.5372L137.159 43.489C135.608 46.1751 132.18 47.0799 129.511 45.5383Z" fill="#2A7948"/>
</svg>
