<svg width="27" height="18" viewBox="0 0 27 18" fill="none" xmlns="http://www.w3.org/2000/svg">
<path d="M3.80499 0H23.68C25.555 0 26.5 0.885 26.5 2.685V15.315C26.5 17.1 25.555 18 23.68 18H3.80499C1.92999 18 0.984985 17.1 0.984985 15.315V2.685C0.984985 0.885 1.92999 0 3.80499 0ZM13.735 12.9L23.845 4.605C24.205 4.305 24.49 3.615 24.04 3C23.605 2.385 22.81 2.37 22.285 2.745L13.735 8.535L5.19999 2.745C4.67499 2.37 3.87999 2.385 3.44499 3C2.99499 3.615 3.27999 4.305 3.63999 4.605L13.735 12.9Z" fill="black"/>
</svg>
