<svg width="140" height="96" viewBox="0 0 140 96" fill="none" xmlns="http://www.w3.org/2000/svg">
<g filter="url(#filter0_d)">
<path d="M61.6016 53.9746C61.6016 65.8822 58.9173 75.0651 53.5488 81.5234C48.2207 87.9818 40.6927 91.2109 30.9648 91.2109C21.1562 91.2109 13.5677 87.9616 8.19922 81.4629C2.83073 74.9642 0.146484 65.8014 0.146484 53.9746V37.8691C0.146484 25.9616 2.81055 16.7786 8.13867 10.3203C13.5072 3.86198 21.0755 0.632812 30.8438 0.632812C40.612 0.632812 48.1803 3.88216 53.5488 10.3809C58.9173 16.8796 61.6016 26.0625 61.6016 37.9297V53.9746ZM41.1973 35.2656C41.1973 28.9284 40.3698 24.2057 38.7148 21.0977C37.0599 17.9492 34.4362 16.375 30.8438 16.375C27.332 16.375 24.7689 17.8281 23.1543 20.7344C21.5801 23.6406 20.7324 28.0404 20.6113 33.9336V56.457C20.6113 63.0365 21.4388 67.86 23.0938 70.9277C24.7487 73.9551 27.3724 75.4688 30.9648 75.4688C34.4362 75.4688 36.9993 73.9954 38.6543 71.0488C40.3092 68.0618 41.1569 63.3997 41.1973 57.0625V35.2656ZM126.084 55.5488H135.045V71.291H126.084V90H105.68V71.291H71.5918L70.3809 58.8184L105.68 2.02539V1.84375H126.084V55.5488ZM89.8164 55.5488H105.68V28.4238L104.408 30.4824L89.8164 55.5488Z" fill="black"/>
</g>
<defs>
<filter id="filter0_d" x="0.146484" y="0.632812" width="138.898" height="94.5781" filterUnits="userSpaceOnUse" color-interpolation-filters="sRGB">
<feFlood flood-opacity="0" result="BackgroundImageFix"/>
<feColorMatrix in="SourceAlpha" type="matrix" values="0 0 0 0 0 0 0 0 0 0 0 0 0 0 0 0 0 0 127 0" result="hardAlpha"/>
<feOffset dx="4" dy="4"/>
<feComposite in2="hardAlpha" operator="out"/>
<feColorMatrix type="matrix" values="0 0 0 0 0.164706 0 0 0 0 0.47451 0 0 0 0 0.282353 0 0 0 0.64 0"/>
<feBlend mode="normal" in2="BackgroundImageFix" result="effect1_dropShadow"/>
<feBlend mode="normal" in="SourceGraphic" in2="effect1_dropShadow" result="shape"/>
</filter>
</defs>
</svg>
