<svg width="51" height="50" viewBox="0 0 51 50" fill="none" xmlns="http://www.w3.org/2000/svg">
<path d="M35.6768 17.2407C36.9194 17.2407 37.9268 16.2334 37.9268 14.9907C37.9268 13.7481 36.9194 12.7407 35.6768 12.7407C34.4341 12.7407 33.4268 13.7481 33.4268 14.9907C33.4268 16.2334 34.4341 17.2407 35.6768 17.2407Z" fill="#E8E9D4"/>
<path d="M25.6672 15.3719C23.7629 15.3719 21.9014 15.9366 20.3181 16.9946C18.7348 18.0525 17.5007 19.5562 16.772 21.3155C16.0432 23.0749 15.8526 25.0108 16.2241 26.8784C16.5956 28.7461 17.5126 30.4617 18.8591 31.8082C20.2056 33.1547 21.9212 34.0717 23.7888 34.4432C25.6565 34.8147 27.5924 34.624 29.3517 33.8953C31.111 33.1666 32.6147 31.9325 33.6727 30.3492C34.7306 28.7658 35.2953 26.9043 35.2953 25.0001C35.2953 22.4465 34.2809 19.9976 32.4753 18.192C30.6697 16.3863 28.2207 15.3719 25.6672 15.3719ZM25.6672 31.2501C24.4311 31.2501 23.2227 30.8835 22.1949 30.1968C21.1671 29.51 20.366 28.5339 19.8929 27.3918C19.4199 26.2498 19.2961 24.9931 19.5373 23.7808C19.7784 22.5684 20.3737 21.4547 21.2478 20.5807C22.1219 19.7066 23.2355 19.1113 24.4479 18.8702C25.6603 18.629 26.9169 18.7528 28.059 19.2258C29.201 19.6989 30.1771 20.5 30.8639 21.5278C31.5506 22.5556 31.9172 23.7639 31.9172 25.0001C31.9172 26.6577 31.2587 28.2474 30.0866 29.4195C28.9145 30.5916 27.3248 31.2501 25.6672 31.2501Z" fill="#E8E9D4"/>
<path d="M25.667 9.62813C30.6732 9.62813 31.267 9.64687 33.2436 9.7375C34.4324 9.75161 35.6099 9.96989 36.7248 10.3828C37.5337 10.6948 38.2682 11.1727 38.8812 11.7857C39.4943 12.3988 39.9722 13.1333 40.2842 13.9422C40.6971 15.0571 40.9154 16.2346 40.9295 17.4234C41.0201 19.4 41.0389 19.9937 41.0389 25.0016C41.0389 30.0094 41.0201 30.6 40.9295 32.5766C40.9154 33.7654 40.6971 34.9429 40.2842 36.0578C39.9722 36.8667 39.4943 37.6012 38.8812 38.2143C38.2682 38.8273 37.5337 39.3052 36.7248 39.6172C35.6099 40.0301 34.4324 40.2484 33.2436 40.2625C31.267 40.3531 30.6732 40.3719 25.667 40.3719C20.6607 40.3719 20.067 40.3531 18.0904 40.2625C16.9016 40.2484 15.7241 40.0301 14.6092 39.6172C13.8003 39.3052 13.0658 38.8273 12.4527 38.2143C11.8397 37.6012 11.3618 36.8667 11.0498 36.0578C10.6369 34.9429 10.4186 33.7654 10.4045 32.5766C10.3139 30.6 10.2951 30.0063 10.2951 25C10.2951 19.9937 10.3139 19.4 10.4045 17.4234C10.4186 16.2346 10.6369 15.0571 11.0498 13.9422C11.3618 13.1333 11.8397 12.3988 12.4527 11.7857C13.0658 11.1727 13.8003 10.6948 14.6092 10.3828C15.7241 9.96989 16.9016 9.75161 18.0904 9.7375C20.067 9.64687 20.6607 9.62813 25.667 9.62813ZM25.667 6.25C20.5748 6.25 19.9357 6.27188 17.9357 6.3625C16.3807 6.3939 14.8422 6.6887 13.3857 7.23438C12.14 7.71609 11.0086 8.45278 10.0642 9.39722C9.11977 10.3417 8.38308 11.473 7.90137 12.7188C7.35552 14.1757 7.06072 15.7147 7.02949 17.2703C6.93887 19.2703 6.91699 19.9062 6.91699 25C6.91699 30.0938 6.93887 30.7313 7.02949 32.7313C7.06089 34.2863 7.35569 35.8248 7.90137 37.2812C8.38308 38.527 9.11977 39.6583 10.0642 40.6028C11.0086 41.5472 12.14 42.2839 13.3857 42.7656C14.8427 43.3115 16.3817 43.6063 17.9373 43.6375C19.9373 43.7281 20.5748 43.75 25.667 43.75C30.7592 43.75 31.3982 43.7281 33.3982 43.6375C34.9538 43.6063 36.4928 43.3115 37.9498 42.7656C39.1955 42.2839 40.3269 41.5472 41.2713 40.6028C42.2158 39.6583 42.9525 38.527 43.4342 37.2812C43.9795 35.8242 44.2738 34.2852 44.3045 32.7297C44.3951 30.7297 44.417 30.0938 44.417 25C44.417 19.9062 44.3951 19.2688 44.3045 17.2688C44.2731 15.7137 43.9783 14.1752 43.4326 12.7188C42.9509 11.473 42.2142 10.3417 41.2698 9.39722C40.3253 8.45278 39.194 7.71609 37.9482 7.23438C36.4912 6.68906 34.9522 6.39479 33.3967 6.36406C31.3967 6.27031 30.7607 6.25 25.667 6.25Z" fill="#E8E9D4"/>
</svg>
