<svg width="50" height="50" viewBox="0 0 50 50" fill="none" xmlns="http://www.w3.org/2000/svg">
<path d="M27.0833 43.75H18.75V18.75H27.0833V22.9167C27.9606 21.8006 29.074 20.8924 30.3437 20.2574C31.6134 19.6224 33.0078 19.2762 34.4271 19.2438C36.9091 19.2575 39.2845 20.255 41.0321 22.0176C42.7798 23.7801 43.7572 26.1637 43.75 28.6458V43.75H35.4167V29.6875C35.2555 28.5616 34.6931 27.5318 33.8329 26.7877C32.9728 26.0435 31.8728 25.6351 30.7354 25.6375C30.2264 25.6536 29.7258 25.7724 29.2638 25.9867C28.8018 26.201 28.3878 26.5064 28.0467 26.8846C27.7057 27.2629 27.4445 27.7061 27.279 28.1877C27.1134 28.6694 27.0469 29.1795 27.0833 29.6875V43.75ZM14.5833 43.75H6.25V18.75H14.5833V43.75ZM10.4167 14.5833C9.3116 14.5833 8.25179 14.1443 7.47039 13.3629C6.68899 12.5815 6.25 11.5217 6.25 10.4167C6.25 9.3116 6.68899 8.25179 7.47039 7.47039C8.25179 6.68899 9.3116 6.25 10.4167 6.25C11.5217 6.25 12.5815 6.68899 13.3629 7.47039C14.1443 8.25179 14.5833 9.3116 14.5833 10.4167C14.5833 11.5217 14.1443 12.5815 13.3629 13.3629C12.5815 14.1443 11.5217 14.5833 10.4167 14.5833Z" fill="#E8E9D4"/>
</svg>
