<svg width="141" height="158" viewBox="0 0 141 158" fill="none" xmlns="http://www.w3.org/2000/svg">
<path d="M72.9258 5.41101C64.8122 5.41101 57.0267 7.00496 49.8048 9.92199L50.7567 10.9834C53.6333 14.191 54.9178 18.7705 54.1925 23.2341L52.0207 36.5927C58.2769 32.9418 65.3885 30.8728 72.9258 30.8728C97.8706 30.8728 118.165 53.502 118.165 81.3169C118.165 109.132 97.8706 131.761 72.9258 131.761C47.981 131.761 27.687 109.132 27.687 81.3169C27.687 72.9124 29.5425 64.9829 32.8168 58.0066L20.8374 60.4279C20.1059 60.5755 19.3622 60.6499 18.624 60.6499C15.3089 60.6499 12.1924 59.21 9.84883 56.5962L8.89777 55.5357C6.28202 63.5885 4.85254 72.2697 4.85254 81.3169C4.85254 123.172 35.3901 157.223 72.9261 157.223C110.462 157.223 141 123.172 141 81.3169C141 39.4621 110.462 5.41101 72.9258 5.41101Z" fill="#2A7948"/>
<path d="M72.926 85.9288C71.8674 85.9288 70.8088 85.4784 70.0014 84.5781L60.4495 73.9272C59.3947 76.133 58.7944 78.6478 58.7944 81.3167C58.7944 90.0054 65.1339 97.0742 72.926 97.0742C80.7184 97.0742 87.0578 90.0054 87.0578 81.3167C87.0578 72.6281 80.7184 65.5592 72.926 65.5592C70.5322 65.5592 68.2769 66.2286 66.2989 67.4047L75.8509 78.0556C77.4662 79.8565 77.4662 82.7769 75.8509 84.5781C75.0432 85.4784 73.9846 85.9288 72.926 85.9288Z" fill="#2A7948"/>
<path d="M44.0388 55.6283C38.986 62.679 35.96 71.6105 35.96 81.3169C35.96 104.045 52.5429 122.537 72.9263 122.537C93.3096 122.537 109.893 104.045 109.893 81.3169C109.893 58.5883 93.3096 40.097 72.9263 40.097C64.2217 40.097 56.2115 43.4716 49.8883 49.1058L60.2887 60.7028C63.8886 57.95 68.2408 56.3351 72.9263 56.3351C85.2801 56.3351 95.3306 67.5417 95.3306 81.3169C95.3306 95.0921 85.2801 106.299 72.9263 106.299C60.5725 106.299 50.5223 95.0921 50.5223 81.3169C50.5223 76.0923 51.9705 71.2394 54.4393 67.2253L44.0388 55.6283Z" fill="#2A7948"/>
<path d="M46.0527 21.5897C46.2945 20.1016 45.8666 18.5753 44.9075 17.5059L30.42 1.35109C29.4248 0.240796 27.9909 -0.228411 26.6154 0.105507C25.24 0.439426 24.1111 1.53066 23.6194 3.00162L19.5254 15.2499L42.8543 41.263L46.0527 21.5897Z" fill="black"/>
<path d="M18.6241 51.4255C18.8693 51.4255 19.116 51.4012 19.362 51.3517L37.005 47.785L13.6761 21.772L2.6919 26.3371C1.37272 26.8853 0.394084 28.1441 0.0946211 29.6778C-0.204566 31.2115 0.21595 32.81 1.21168 33.92L15.6992 50.0745C16.4818 50.9474 17.5368 51.4255 18.6241 51.4255Z" fill="black"/>
</svg>
