<svg width="20" height="26" viewBox="0 0 20 26" fill="none" xmlns="http://www.w3.org/2000/svg">
<path d="M9.97033 25.7456C8.21642 24.2495 6.5907 22.6094 5.11016 20.8424C2.88838 18.1887 0.250001 14.2367 0.250001 10.4708C0.249038 8.54752 0.818652 6.66717 1.88676 5.06773C2.95486 3.46829 4.47344 2.22166 6.25031 1.48561C8.02719 0.749558 9.98248 0.55717 11.8687 0.932794C13.755 1.30842 15.4874 2.23517 16.8468 3.59576C17.7518 4.49677 18.4692 5.56834 18.9573 6.74844C19.4455 7.92854 19.6947 9.19374 19.6907 10.4708C19.6907 14.2367 17.0523 18.1887 14.8305 20.8424C13.35 22.6094 11.7242 24.2495 9.97033 25.7456ZM9.97033 6.30495C8.86547 6.30495 7.80587 6.74385 7.02462 7.5251C6.24337 8.30635 5.80447 9.36595 5.80447 10.4708C5.80447 11.5757 6.24337 12.6353 7.02462 13.4165C7.80587 14.1978 8.86547 14.6367 9.97033 14.6367C11.0752 14.6367 12.1348 14.1978 12.916 13.4165C13.6973 12.6353 14.1362 11.5757 14.1362 10.4708C14.1362 9.36595 13.6973 8.30635 12.916 7.5251C12.1348 6.74385 11.0752 6.30495 9.97033 6.30495Z" fill="black"/>
</svg>
