<svg width="16" height="21" viewBox="0 0 16 21" fill="none" xmlns="http://www.w3.org/2000/svg">
<path d="M7.77626 20.9965C6.37314 19.7996 5.07256 18.4875 3.88813 17.0739C2.1107 14.951 9.76359e-07 11.7894 9.76359e-07 8.77662C-0.000769872 7.23799 0.454921 5.73371 1.3094 4.45416C2.16389 3.17461 3.37875 2.17731 4.80025 1.58846C6.22175 0.999622 7.78598 0.845712 9.29498 1.14621C10.804 1.44671 12.1899 2.18811 13.2774 3.27658C14.0014 3.9974 14.5753 4.85465 14.9658 5.79873C15.3564 6.74281 15.5558 7.75496 15.5525 8.77662C15.5525 11.7894 13.4418 14.951 11.6644 17.0739C10.48 18.4875 9.17939 19.7996 7.77626 20.9965ZM7.77626 5.44394C6.89238 5.44394 6.0447 5.79506 5.4197 6.42006C4.7947 7.04506 4.44358 7.89274 4.44358 8.77662C4.44358 9.6605 4.7947 10.5082 5.4197 11.1332C6.0447 11.7582 6.89238 12.1093 7.77626 12.1093C8.66015 12.1093 9.50783 11.7582 10.1328 11.1332C10.7578 10.5082 11.1089 9.6605 11.1089 8.77662C11.1089 7.89274 10.7578 7.04506 10.1328 6.42006C9.50783 5.79506 8.66015 5.44394 7.77626 5.44394Z" fill="white"/>
</svg>
