<svg width="138" height="96" viewBox="0 0 138 96" fill="none" xmlns="http://www.w3.org/2000/svg">
<g filter="url(#filter0_d)">
<path d="M61.6016 53.9746C61.6016 65.8822 58.9173 75.0651 53.5488 81.5234C48.2207 87.9818 40.6927 91.2109 30.9648 91.2109C21.1562 91.2109 13.5677 87.9616 8.19922 81.4629C2.83073 74.9642 0.146484 65.8014 0.146484 53.9746V37.8691C0.146484 25.9616 2.81055 16.7786 8.13867 10.3203C13.5072 3.86198 21.0755 0.632812 30.8438 0.632812C40.612 0.632812 48.1803 3.88216 53.5488 10.3809C58.9173 16.8796 61.6016 26.0625 61.6016 37.9297V53.9746ZM41.1973 35.2656C41.1973 28.9284 40.3698 24.2057 38.7148 21.0977C37.0599 17.9492 34.4362 16.375 30.8438 16.375C27.332 16.375 24.7689 17.8281 23.1543 20.7344C21.5801 23.6406 20.7324 28.0404 20.6113 33.9336V56.457C20.6113 63.0365 21.4388 67.86 23.0938 70.9277C24.7487 73.9551 27.3724 75.4688 30.9648 75.4688C34.4362 75.4688 36.9993 73.9954 38.6543 71.0488C40.3092 68.0618 41.1569 63.3997 41.1973 57.0625V35.2656ZM90.8457 37.3848H100.473C108.102 37.3848 111.916 33.651 111.916 26.1836C111.916 23.2773 111.008 20.916 109.191 19.0996C107.375 17.2428 104.812 16.3145 101.502 16.3145C98.7975 16.3145 96.4362 17.1016 94.418 18.6758C92.4401 20.25 91.4512 22.2077 91.4512 24.5488H71.0469C71.0469 19.9069 72.3385 15.7695 74.9219 12.1367C77.5052 8.50391 81.0775 5.67839 85.6387 3.66016C90.2402 1.60156 95.2858 0.572266 100.775 0.572266C110.584 0.572266 118.294 2.8125 123.904 7.29297C129.515 11.7734 132.32 17.929 132.32 25.7598C132.32 29.554 131.15 33.1465 128.809 36.5371C126.508 39.8874 123.137 42.612 118.697 44.7109C123.38 46.4062 127.053 48.9896 129.717 52.4609C132.381 55.8919 133.713 60.1504 133.713 65.2363C133.713 73.1074 130.686 79.4043 124.631 84.127C118.576 88.8496 110.624 91.2109 100.775 91.2109C95.0033 91.2109 89.6348 90.1211 84.6699 87.9414C79.7454 85.7214 76.0117 82.6738 73.4688 78.7988C70.9258 74.8835 69.6543 70.4434 69.6543 65.4785H90.1797C90.1797 68.1829 91.2695 70.5241 93.4492 72.502C95.6289 74.4798 98.3132 75.4688 101.502 75.4688C105.094 75.4688 107.96 74.4798 110.1 72.502C112.239 70.4837 113.309 67.9206 113.309 64.8125C113.309 60.3724 112.199 57.224 109.979 55.3672C107.758 53.5104 104.691 52.582 100.775 52.582H90.8457V37.3848Z" fill="black"/>
</g>
<defs>
<filter id="filter0_d" x="0.146484" y="0.572266" width="137.566" height="94.6387" filterUnits="userSpaceOnUse" color-interpolation-filters="sRGB">
<feFlood flood-opacity="0" result="BackgroundImageFix"/>
<feColorMatrix in="SourceAlpha" type="matrix" values="0 0 0 0 0 0 0 0 0 0 0 0 0 0 0 0 0 0 127 0" result="hardAlpha"/>
<feOffset dx="4" dy="4"/>
<feComposite in2="hardAlpha" operator="out"/>
<feColorMatrix type="matrix" values="0 0 0 0 0.164706 0 0 0 0 0.47451 0 0 0 0 0.282353 0 0 0 0.64 0"/>
<feBlend mode="normal" in2="BackgroundImageFix" result="effect1_dropShadow"/>
<feBlend mode="normal" in="SourceGraphic" in2="effect1_dropShadow" result="shape"/>
</filter>
</defs>
</svg>
