<svg width="51" height="50" viewBox="0 0 51 50" fill="none" xmlns="http://www.w3.org/2000/svg">
<path d="M41.2344 16.6603C41.2615 17.0249 41.2615 17.3874 41.2615 17.7499C41.2615 28.8436 32.8178 41.627 17.3865 41.627C12.6324 41.627 8.21569 40.2499 4.49902 37.8582C5.17402 37.9353 5.82402 37.9624 6.52611 37.9624C10.3032 37.9715 13.9733 36.7085 16.9449 34.377C15.1937 34.3453 13.4961 33.7675 12.0891 32.7243C10.6821 31.6812 9.63607 30.2247 9.09694 28.5582C9.61569 28.6353 10.1365 28.6874 10.6824 28.6874C11.4344 28.6874 12.1907 28.5832 12.8928 28.402C10.9923 28.0182 9.28334 26.9881 8.05656 25.4867C6.82978 23.9853 6.16088 22.1054 6.16361 20.1666V20.0624C7.28236 20.6853 8.58027 21.0749 9.95527 21.127C8.80338 20.3615 7.85886 19.3229 7.20598 18.1036C6.55311 16.8844 6.21218 15.5225 6.21361 14.1395C6.21361 12.5811 6.62819 11.152 7.35527 9.90614C9.4639 12.4999 12.0938 14.6219 15.0747 16.1346C18.0556 17.6473 21.321 18.517 24.6594 18.6874C24.5303 18.0624 24.4511 17.4145 24.4511 16.7645C24.4506 15.6623 24.6672 14.5708 25.0888 13.5525C25.5103 12.5341 26.1284 11.6088 26.9077 10.8294C27.6871 10.0501 28.6124 9.43199 29.6308 9.01047C30.6491 8.58894 31.7406 8.37226 32.8428 8.3728C35.2594 8.3728 37.4407 9.3853 38.974 11.0228C40.8527 10.6595 42.6543 9.97368 44.299 8.99572C43.6728 10.9349 42.361 12.5793 40.6094 13.6207C42.2757 13.4307 43.9041 12.9925 45.4407 12.3207C44.293 13.9938 42.8709 15.461 41.2344 16.6603Z" fill="#E8E9D4"/>
</svg>
