<svg width="138" height="96" viewBox="0 0 138 96" fill="none" xmlns="http://www.w3.org/2000/svg">
<g filter="url(#filter0_d)">
<path d="M61.6016 53.9746C61.6016 65.8822 58.9173 75.0651 53.5488 81.5234C48.2207 87.9818 40.6927 91.2109 30.9648 91.2109C21.1562 91.2109 13.5677 87.9616 8.19922 81.4629C2.83073 74.9642 0.146484 65.8014 0.146484 53.9746V37.8691C0.146484 25.9616 2.81055 16.7786 8.13867 10.3203C13.5072 3.86198 21.0755 0.632812 30.8438 0.632812C40.612 0.632812 48.1803 3.88216 53.5488 10.3809C58.9173 16.8796 61.6016 26.0625 61.6016 37.9297V53.9746ZM41.1973 35.2656C41.1973 28.9284 40.3698 24.2057 38.7148 21.0977C37.0599 17.9492 34.4362 16.375 30.8438 16.375C27.332 16.375 24.7689 17.8281 23.1543 20.7344C21.5801 23.6406 20.7324 28.0404 20.6113 33.9336V56.457C20.6113 63.0365 21.4388 67.86 23.0938 70.9277C24.7487 73.9551 27.3724 75.4688 30.9648 75.4688C34.4362 75.4688 36.9993 73.9954 38.6543 71.0488C40.3092 68.0618 41.1569 63.3997 41.1973 57.0625V35.2656ZM133.713 90H72.1973V76.6797L100.533 46.8906C107.516 38.9388 111.008 32.6217 111.008 27.9395C111.008 24.1452 110.18 21.2591 108.525 19.2812C106.87 17.3034 104.469 16.3145 101.32 16.3145C98.2122 16.3145 95.6895 17.6465 93.752 20.3105C91.8145 22.9342 90.8457 26.224 90.8457 30.1797H70.3809C70.3809 24.7708 71.7331 19.7858 74.4375 15.2246C77.1419 10.623 80.8958 7.0306 85.6992 4.44727C90.5026 1.86393 95.8711 0.572266 101.805 0.572266C111.331 0.572266 118.657 2.77214 123.783 7.17188C128.95 11.5716 131.533 17.8887 131.533 26.123C131.533 29.5944 130.887 32.985 129.596 36.2949C128.304 39.5645 126.286 43.0156 123.541 46.6484C120.837 50.2409 116.457 55.0645 110.402 61.1191L99.0195 74.2578H133.713V90Z" fill="black"/>
</g>
<defs>
<filter id="filter0_d" x="0.146484" y="0.572266" width="137.566" height="94.6387" filterUnits="userSpaceOnUse" color-interpolation-filters="sRGB">
<feFlood flood-opacity="0" result="BackgroundImageFix"/>
<feColorMatrix in="SourceAlpha" type="matrix" values="0 0 0 0 0 0 0 0 0 0 0 0 0 0 0 0 0 0 127 0" result="hardAlpha"/>
<feOffset dx="4" dy="4"/>
<feComposite in2="hardAlpha" operator="out"/>
<feColorMatrix type="matrix" values="0 0 0 0 0.164706 0 0 0 0 0.47451 0 0 0 0 0.282353 0 0 0 0.64 0"/>
<feBlend mode="normal" in2="BackgroundImageFix" result="effect1_dropShadow"/>
<feBlend mode="normal" in="SourceGraphic" in2="effect1_dropShadow" result="shape"/>
</filter>
</defs>
</svg>
