<svg width="200" height="125" viewBox="0 0 200 125" fill="none" xmlns="http://www.w3.org/2000/svg">
<path d="M155.455 56.3186C144.954 56.3186 136.464 65.4047 136.464 76.544C136.464 79.2087 138.515 81.3928 141.017 81.3928C143.519 81.3928 145.57 79.2087 145.57 76.544C145.57 70.7341 150.041 65.9726 155.496 65.9726C157.998 65.9726 160.049 63.7884 160.049 61.1238C160.008 58.4591 157.957 56.3186 155.455 56.3186Z" fill="black"/>
<path d="M186.423 42.3836C185.315 41.2478 184.126 40.1558 182.895 39.1074L166.078 23.9056C159.598 19.0131 151.886 15.9116 143.519 15.3L144.421 16.261L134.208 5.34021H134.126C131.296 2.58817 127.481 0.884521 123.339 0.884521C116.202 0.884521 110.172 5.82073 108.121 12.679C106.07 11.2811 103.691 10.4512 101.107 10.2764C100.697 10.2327 100.246 10.2327 99.8357 10.2327C96.9235 10.2327 94.2164 11.1501 91.9194 12.679C89.8275 5.86441 83.798 0.928204 76.702 0.928204C72.5593 0.928204 68.7857 2.58817 65.9145 5.3839H65.8325L55.6192 16.3047L56.5216 15.3437C48.1541 15.9552 40.4019 19.1004 33.9622 23.9493L17.1452 39.1511C15.9146 40.1558 14.7252 41.2478 13.6177 42.4273C5.20918 51.0766 0 63.1768 0 76.5876C0 102.798 20.0164 124.115 44.6266 124.115C67.3501 124.115 86.177 105.899 88.8841 82.4412C92.1655 84.4506 95.9801 85.5863 99.9998 85.5863C104.06 85.5863 107.834 84.4506 111.115 82.4412C113.864 105.855 132.649 124.071 155.373 124.071C179.983 124.071 200 102.754 200 76.5439C200.041 63.1332 194.831 51.0329 186.423 42.3836ZM44.6266 109.001C27.8096 109.001 14.1919 94.4977 14.1919 76.5876C14.1919 58.6775 27.8096 44.1746 44.6266 44.1746C61.4437 44.1746 75.0614 58.6775 75.0614 76.5876C75.1024 94.454 61.4437 109.001 44.6266 109.001ZM100.041 72.1319C94.5855 72.1319 90.1557 67.4141 90.1557 61.6042C90.1557 55.7944 94.5855 51.0766 100.041 51.0766C105.496 51.0766 109.926 55.7944 109.926 61.6042C109.926 67.4141 105.496 72.1319 100.041 72.1319ZM155.455 109.001C138.638 109.001 125.02 94.4977 125.02 76.5876C125.02 58.6775 138.638 44.1746 155.455 44.1746C172.272 44.1746 185.89 58.6775 185.89 76.5876C185.89 94.454 172.272 109.001 155.455 109.001Z" fill="#2A7948"/>
<path d="M44.6267 56.3186C34.1263 56.3186 25.6357 65.4047 25.6357 76.544C25.6357 79.2087 27.6866 81.3928 30.1886 81.3928C32.6907 81.3928 34.7415 79.2087 34.7415 76.544C34.7415 70.7341 39.2124 65.9726 44.6677 65.9726C47.1697 65.9726 49.2206 63.7884 49.2206 61.1238C49.1796 58.4591 47.1287 56.3186 44.6267 56.3186Z" fill="black"/>
</svg>
