<svg width="20" height="20" viewBox="0 0 20 20" fill="none" xmlns="http://www.w3.org/2000/svg">
<path d="M13.7 7.1C14.2 7.1 14.5 6.7 14.5 6.3C14.5 5.8 14.1 5.5 13.7 5.5C13.3 5.5 12.9 5.9 12.9 6.3C12.9 6.7 13.3 7.1 13.7 7.1Z" fill="#E8E9D4"/>
<path d="M9.99999 6.3999C9.29999 6.3999 8.59999 6.5999 7.99999 6.9999C7.39999 7.3999 6.99999 7.9999 6.69999 8.5999C6.39999 9.2999 6.29999 9.9999 6.49999 10.6999C6.59999 11.3999 6.99999 11.9999 7.49999 12.4999C7.99999 12.9999 8.59999 13.2999 9.29999 13.4999C9.99999 13.5999 10.7 13.5999 11.4 13.2999C12.1 12.9999 12.6 12.5999 13 11.9999C13.4 11.3999 13.6 10.6999 13.6 9.9999C13.6 8.9999 13.2 8.0999 12.5 7.4999C11.9 6.7999 11 6.3999 9.99999 6.3999ZM9.99999 12.2999C9.49999 12.2999 9.09999 12.1999 8.69999 11.8999C8.29999 11.5999 7.99999 11.2999 7.79999 10.8999C7.69999 10.4999 7.59999 9.9999 7.69999 9.4999C7.79999 9.0999 7.99999 8.6999 8.39999 8.3999C8.69999 7.9999 9.09999 7.7999 9.49999 7.6999C9.99999 7.5999 10.4 7.6999 10.8 7.7999C11.2 7.8999 11.6 8.2999 11.8 8.6999C12.1 9.0999 12.2 9.4999 12.2 9.9999C12.2 10.5999 12 11.1999 11.5 11.5999C11.2 12.0999 10.6 12.2999 9.99999 12.2999Z" fill="#E8E9D4"/>
<path d="M10 4.3C11.9 4.3 12.1 4.3 12.8 4.3C13.2 4.3 13.7 4.4 14.1 4.5C14.4 4.6 14.7 4.8 14.9 5C15.1 5.2 15.3 5.5 15.4 5.8C15.6 6.2 15.6 6.7 15.6 7.1C15.6 7.8 15.6 8.1 15.6 9.9C15.6 11.7 15.6 12 15.6 12.7C15.6 13.1 15.5 13.6 15.4 14C15.3 14.3 15.1 14.6 14.9 14.8C14.7 15 14.4 15.2 14.1 15.3C13.7 15.5 13.2 15.5 12.8 15.5C12.1 15.5 11.8 15.5 10 15.5C8.2 15.5 7.9 15.5 7.2 15.5C6.8 15.5 6.3 15.4 5.9 15.3C5.6 15.2 5.3 15 5.1 14.8C4.9 14.6 4.7 14.3 4.6 14C4.4 13.6 4.4 13.1 4.4 12.7C4.4 12 4.4 11.7 4.4 9.9C4.4 8.1 4.4 7.8 4.4 7.1C4.4 6.7 4.5 6.2 4.6 5.8C4.7 5.5 4.9 5.2 5.1 5C5.3 4.8 5.6 4.6 5.9 4.5C6.3 4.3 6.8 4.3 7.2 4.3C7.9 4.3 8.1 4.3 10 4.3ZM10 3C8.1 3 7.9 3 7.1 3C6.5 3.1 6 3.2 5.4 3.4C4.9 3.5 4.5 3.8 4.2 4.2C3.8 4.5 3.5 4.9 3.4 5.4C3.2 6 3.1 6.5 3 7.1C3 7.8 3 8.1 3 10C3 11.9 3 12.1 3 12.9C3 13.5 3.1 14.1 3.3 14.6C3.5 15.1 3.8 15.5 4.1 15.8C4.5 16.2 4.9 16.4 5.3 16.6C6 16.8 6.5 16.9 7.1 17C7.8 17 8.1 17 10 17C11.9 17 12.1 17 12.9 17C13.5 17 14.1 16.9 14.6 16.7C15.1 16.5 15.5 16.2 15.8 15.9C16.2 15.5 16.4 15.1 16.6 14.7C16.8 14.2 16.9 13.6 16.9 13C16.9 12.3 16.9 12 16.9 10.1C16.9 8.2 16.9 8 16.9 7.2C16.9 6.6 16.8 6 16.6 5.5C16.4 5 16.1 4.6 15.8 4.3C15.4 3.9 15 3.7 14.6 3.5C14 3.2 13.5 3.1 12.9 3C12.1 3 11.9 3 10 3Z" fill="#E8E9D4"/>
</svg>
