<svg width="20" height="20" viewBox="0 0 20 20" fill="none" xmlns="http://www.w3.org/2000/svg">
<path d="M10.8 17H7.7V7.7H10.8V9.3C11.1 8.9 11.5 8.5 12 8.3C12.5 8.1 13 7.9 13.5 7.9C14.4 7.9 15.3 8.3 16 8.9C16.7 9.6 17 10.5 17 11.4V17H13.9V11.7C13.8 11.3 13.6 10.9 13.3 10.6C13 10.3 12.6 10.2 12.1 10.2C11.9 10.2 11.7 10.3 11.5 10.3C11.3 10.4 11.2 10.5 11 10.6C10.9 10.7 10.8 10.9 10.7 11.1C10.6 11.3 10.6 11.5 10.6 11.7V17H10.8ZM6.1 17H3V7.7H6.1V17ZM4.5 6.1C4.1 6.1 3.7 5.9 3.4 5.6C3.1 5.3 3 4.9 3 4.5C3 4.1 3.2 3.7 3.5 3.4C3.7 3.1 4.1 3 4.5 3C4.9 3 5.3 3.2 5.6 3.5C5.9 3.8 6.1 4.2 6.1 4.6C6.1 5 5.9 5.4 5.6 5.7C5.3 5.9 4.9 6.1 4.5 6.1Z" fill="#E8E9D4"/>
</svg>
