<svg width="20" height="20" viewBox="0 0 20 20" fill="none" xmlns="http://www.w3.org/2000/svg">
<path d="M16.6 12.9L13.5 11.6C13.4 11.5 13.2 11.5 13.1 11.6C13 11.6 12.8 11.7 12.7 11.8L11.3 13.5C9.2 12.5 7.5 10.8 6.5 8.7L8.2 7.3C8.3 7.1 8.4 7 8.5 6.9C8.5 6.8 8.5 6.6 8.5 6.5L7.1 3.4C7 3.3 6.9 3.1 6.8 3.1C6.7 3 6.5 3 6.4 3L3.5 3.7C3.4 3.7 3.2 3.8 3.1 3.9C3.1 4 3 4.2 3 4.3C3 11.3 8.7 17 15.7 17C15.8 17 16 16.9 16.1 16.9C16.2 16.8 16.3 16.7 16.3 16.5L17 13.7C17 13.5 17 13.4 16.9 13.3C16.9 13.1 16.7 13 16.6 12.9Z" fill="#E8E9D4"/>
</svg>
