<svg width="20" height="20" viewBox="0 0 20 20" fill="none" xmlns="http://www.w3.org/2000/svg">
<path d="M16.5 6.70005C16.5 6.80005 16.5 7.00005 16.5 7.10005C16.5 11.5 13.1 16.7 6.90001 16.7C5.00001 16.7 3.20001 16.1 1.70001 15.2C2.00001 15.2 2.20001 15.2 2.50001 15.2C4.00001 15.2 5.50001 14.7 6.70001 13.8C6.00001 13.8 5.30001 13.6 4.80001 13.1C4.20001 12.7 3.80001 12.1 3.60001 11.4C3.80001 11.4 4.00001 11.5 4.20001 11.5C4.50001 11.5 4.80001 11.5 5.10001 11.4C4.30001 11.2 3.70001 10.8 3.20001 10.2C2.70001 9.60005 2.50001 8.80005 2.50001 8.10005C2.90001 8.30005 3.50001 8.50005 4.00001 8.50005C3.50001 8.10005 3.20001 7.70005 2.90001 7.20005C2.60001 6.70005 2.50001 6.20005 2.50001 5.60005C2.50001 5.00005 2.70001 4.50005 3.00001 4.00005C3.80001 5.00005 4.80001 5.80005 6.00001 6.50005C7.20001 7.20005 8.50001 7.50005 9.80001 7.50005C9.80001 7.20005 9.80001 7.00005 9.80001 6.70005C9.80001 6.30005 9.90001 5.80005 10.1 5.40005C10.3 5.00005 10.5 4.60005 10.8 4.30005C11.1 4.00005 11.5 3.70005 11.9 3.60005C12.3 3.40005 12.7 3.30005 13.2 3.30005C14.2 3.30005 15 3.70005 15.7 4.40005C16.5 4.30005 17.2 4.00005 17.8 3.60005C17.5 4.40005 17 5.00005 16.3 5.40005C17 5.30005 17.6 5.10005 18.2 4.90005C17.7 5.60005 17.2 6.20005 16.5 6.70005Z" fill="#E8E9D4"/>
</svg>
